<?xml version="1.0" standalone="no"?>
<!DOCTYPE svg PUBLIC "-//W3C//DTD SVG 20010904//EN"
 "http://www.w3.org/TR/2001/REC-SVG-20010904/DTD/svg10.dtd">
<svg version="1.0" xmlns="http://www.w3.org/2000/svg"
 width="700.000000pt" height="700.000000pt" viewBox="0 0 700.000000 700.000000"
 preserveAspectRatio="xMidYMid meet">
<metadata>
Created by potrace 1.14, written by Peter Selinger 2001-2017
</metadata>
<g transform="translate(0.000000,700.000000) scale(0.100000,-0.100000)"
fill="#000000" stroke="none">
<path d="M5783 6985 c-76 -21 -123 -47 -185 -104 -62 -56 -101 -122 -123 -206
-20 -79 -21 -416 -1 -491 51 -193 220 -324 416 -324 204 0 378 140 421 339 6
31 9 133 7 264 l-3 212 -32 68 c-92 194 -302 295 -500 242z m184 -295 c61 -37
68 -64 68 -267 0 -199 -2 -208 -69 -257 -35 -26 -112 -27 -151 -2 -59 39 -65
64 -65 264 0 204 6 227 63 262 19 12 50 20 77 20 27 0 58 -8 77 -20z"/>
<path d="M6794 6985 c-17 -9 -103 -89 -191 -178 -173 -174 -189 -200 -173
-273 17 -74 99 -124 170 -104 19 5 51 23 71 40 l38 30 3 -268 c3 -296 7 -313
71 -353 45 -28 127 -22 163 12 55 51 54 42 54 536 0 503 0 501 -61 546 -36 26
-106 32 -145 12z"/>
<path d="M3160 6718 c-661 -40 -1190 -495 -1317 -1135 -21 -106 -23 -378 -4
-523 26 -207 74 -394 145 -572 l43 -108 -51 -29 c-63 -35 -136 -112 -170 -179
l-26 -51 -763 -3 -762 -3 -56 -26 c-72 -34 -134 -96 -168 -168 l-26 -56 -3
-1150 c-2 -1081 -1 -1152 15 -1185 10 -19 33 -45 52 -57 l34 -23 423 0 424 0
0 -145 0 -145 -63 0 c-118 0 -193 -64 -184 -157 5 -51 36 -95 81 -117 29 -14
77 -16 325 -16 l291 0 0 -289 0 -290 -419 -3 c-406 -3 -420 -4 -447 -24 -70
-51 -87 -129 -45 -197 45 -73 -239 -67 3010 -67 2853 0 2923 0 2959 19 48 25
74 70 74 128 0 50 -18 82 -66 117 -27 20 -41 21 -446 24 l-419 3 -3 542 c-4
608 -2 587 -81 747 -52 108 -179 241 -273 288 -33 17 -267 117 -520 222 -321
133 -466 198 -481 216 -21 23 -23 34 -22 152 l0 127 195 110 c219 123 303 191
378 303 83 127 123 250 133 413 l6 106 61 29 c171 81 279 291 248 480 -24 147
-132 292 -254 344 -55 24 -58 26 -58 62 0 21 13 70 29 110 97 246 140 448 148
693 8 272 -27 455 -127 660 -195 404 -559 660 -858 606 -62 -12 -63 -12 -108
20 -25 17 -85 51 -133 74 -205 102 -433 141 -721 123z m942 -1764 c180 -93
185 -97 291 -202 60 -59 139 -148 178 -198 64 -84 69 -94 69 -140 l0 -50 -54
-26 -54 -27 -28 30 c-50 52 -157 118 -232 145 -203 70 -435 23 -592 -122 -70
-66 -132 -153 -158 -226 -9 -26 -19 -48 -22 -48 -3 0 -13 22 -22 48 -26 72
-87 160 -154 222 -228 211 -576 211 -806 1 l-54 -49 -39 24 c-22 13 -44 25
-48 27 -4 1 1 28 12 60 66 192 203 336 370 388 47 14 114 23 232 29 96 6 208
18 265 31 174 37 356 121 485 224 l53 42 62 -44 c34 -24 145 -86 246 -139z
m-1057 -758 c72 -33 110 -69 144 -138 55 -109 39 -242 -40 -332 -60 -68 -136
-101 -229 -101 -93 0 -151 25 -214 90 -111 113 -115 288 -10 405 96 106 221
133 349 76z m1155 3 c58 -26 115 -81 148 -144 37 -70 38 -187 3 -259 -31 -63
-84 -116 -147 -147 -68 -33 -177 -33 -251 0 -61 27 -126 94 -155 157 -23 53
-27 152 -8 210 55 169 246 254 410 183z m-1869 -255 c-3 -187 43 -307 169
-435 129 -131 266 -185 450 -176 167 8 291 64 407 184 49 52 133 196 133 229
0 8 5 14 10 14 6 0 10 -7 10 -15 0 -28 63 -144 109 -202 56 -69 174 -152 262
-183 89 -31 250 -38 339 -15 209 54 381 226 435 435 12 47 16 94 13 168 l-4
102 76 39 76 40 39 -18 c48 -22 69 -44 90 -94 20 -49 19 -82 -6 -135 -27 -55
-77 -87 -158 -101 -42 -7 -73 -18 -89 -33 -46 -44 -52 -68 -52 -216 0 -219
-42 -345 -150 -446 -41 -38 -776 -468 -884 -517 -50 -23 -152 -25 -202 -4 -19
8 -222 121 -452 252 -447 254 -473 273 -530 380 -47 89 -62 166 -62 331 0 152
-6 176 -52 220 -16 15 -47 26 -89 33 -82 14 -135 48 -160 102 -23 51 -24 86
-4 134 21 50 42 72 89 94 l40 17 75 -37 75 -38 -3 -109z m-552 -151 c37 -102
138 -211 234 -254 l54 -24 5 -115 c9 -202 85 -379 222 -515 59 -58 106 -90
279 -189 l209 -119 -4 -129 c-3 -119 -5 -131 -25 -147 -11 -10 -230 -104 -485
-210 -254 -106 -488 -207 -519 -223 -31 -16 -82 -52 -112 -79 l-55 -49 -646 0
-646 0 0 1033 c0 790 3 1036 12 1045 9 9 187 12 738 12 l726 0 13 -37z m1468
-1480 c47 -23 104 -40 163 -50 153 -26 280 6 468 116 l52 31 0 -148 c0 -163
-13 -232 -57 -314 -38 -70 -116 -144 -192 -181 -63 -30 -72 -32 -181 -32 -111
0 -118 1 -183 33 -120 59 -209 172 -236 300 -6 29 -11 118 -11 198 l0 144 53
-31 c28 -17 84 -46 124 -66z m-1831 -895 c-3 -18 -9 -84 -12 -145 l-7 -113
-83 0 -84 0 0 138 c0 76 3 142 7 145 3 4 47 7 96 7 l89 0 -6 -32z"/>
<path d="M2902 4084 c-111 -57 -110 -235 1 -288 110 -52 237 25 237 144 0 49
-29 106 -68 135 -36 26 -126 31 -170 9z"/>
<path d="M3955 4091 c-27 -12 -75 -61 -86 -89 -40 -105 41 -222 152 -222 98 1
163 72 157 171 -5 65 -31 109 -82 133 -36 17 -107 20 -141 7z"/>
<path d="M3305 3421 c-35 -15 -75 -62 -85 -103 -14 -51 9 -146 50 -202 104
-140 310 -155 433 -32 78 78 105 203 59 277 -38 62 -66 69 -264 68 -95 0 -182
-4 -193 -8z"/>
<path d="M620 3572 c-101 -50 -108 -191 -14 -253 26 -17 51 -19 272 -19 203 0
250 3 278 16 101 48 98 204 -6 256 -30 16 -66 18 -265 18 -199 0 -235 -2 -265
-18z"/>
<path d="M1495 3576 c-17 -7 -43 -28 -58 -45 -22 -26 -27 -43 -27 -84 0 -88
57 -147 140 -147 112 0 179 104 131 204 -35 71 -116 103 -186 72z"/>
<path d="M630 3162 c-61 -28 -90 -73 -90 -138 0 -42 5 -59 27 -85 47 -55 69
-59 318 -59 243 0 269 4 314 53 32 35 41 117 17 161 -9 17 -29 40 -44 51 -25
19 -44 20 -277 22 -137 1 -257 -1 -265 -5z"/>
<path d="M1483 3154 c-46 -23 -75 -74 -75 -131 0 -74 56 -132 133 -140 60 -6
108 21 137 77 27 54 28 84 3 130 -38 73 -124 100 -198 64z"/>
<path d="M1889 3147 c-124 -83 -63 -267 89 -267 43 0 93 28 124 71 28 37 27
107 -1 152 -41 67 -145 89 -212 44z"/>
<path d="M655 2751 c-76 -19 -115 -67 -115 -141 0 -55 27 -102 72 -127 31 -17
75 -18 648 -18 579 0 617 1 645 18 71 44 94 125 55 194 -46 82 -10 78 -680 80
-327 1 -608 -2 -625 -6z"/>
<path d="M375 6106 c-16 -8 -105 -90 -197 -182 -139 -141 -167 -175 -173 -206
-14 -72 14 -126 80 -158 59 -29 105 -19 162 33 l43 40 0 -269 c0 -236 2 -273
18 -304 49 -99 188 -107 249 -13 17 25 18 63 21 485 3 437 2 460 -17 503 -31
71 -114 103 -186 71z"/>
<path d="M1011 6104 c-149 -40 -263 -151 -306 -297 -14 -47 -16 -95 -13 -284
l3 -228 32 -68 c42 -89 121 -168 210 -209 85 -40 207 -50 295 -24 158 46 278
176 308 336 14 71 13 376 -1 442 -52 241 -295 395 -528 332z m207 -318 l37
-36 3 -189 c4 -210 -1 -230 -58 -271 -72 -51 -171 -26 -209 54 -19 37 -21 61
-21 207 0 186 8 216 70 257 29 20 44 23 88 20 45 -4 59 -10 90 -42z"/>
<path d="M5690 3972 c-28 -10 -68 -40 -105 -77 -102 -102 -95 -25 -95 -1046 0
-971 -3 -927 60 -1012 16 -22 50 -55 75 -72 82 -59 92 -60 630 -60 l490 0 62
29 c72 33 134 94 166 164 l22 47 0 905 0 905 -23 46 c-33 67 -83 121 -143 154
l-54 30 -520 2 c-467 2 -525 0 -565 -15z m1008 -274 c7 -7 12 -22 12 -35 l0
-23 -470 0 c-508 0 -488 -2 -460 51 10 18 26 19 458 19 335 0 451 -3 460 -12z
m12 -828 l0 -480 -470 0 -470 0 0 480 0 480 470 0 470 0 0 -480z m0 -819 c0
-35 -4 -51 -16 -55 -9 -3 -215 -6 -458 -6 -330 0 -445 3 -454 12 -7 7 -12 31
-12 55 l0 43 470 0 470 0 0 -49z"/>
<path d="M103 279 c-44 -13 -91 -63 -99 -105 -32 -173 209 -242 272 -79 14 38
15 52 5 84 -12 43 -71 101 -101 101 -10 0 -24 2 -32 4 -7 2 -27 0 -45 -5z"/>
<path d="M6825 280 c-48 -11 -74 -32 -96 -78 -65 -134 99 -263 216 -170 31 24
55 74 55 114 0 82 -93 154 -175 134z"/>
</g>
</svg>
